<svg width="165" height="124" viewBox="0 0 165 124" fill="none" xmlns="http://www.w3.org/2000/svg">
<g opacity="0.4">
<path d="M90.4 127.998L90.4 120.491C90.4868 120.493 90.5739 120.494 90.6613 120.494C96.8853 120.494 101.675 115.656 101.675 110H109.141C109.141 115.656 113.931 120.494 120.155 120.494C126.379 120.494 131.168 115.656 131.168 110H138.635C138.635 115.656 143.424 120.494 149.648 120.494C155.872 120.494 160.661 115.656 160.661 110H168.128C168.128 115.656 172.917 120.494 179.141 120.494C179.431 120.494 179.717 120.483 180 120.463V127.981C179.715 127.994 179.429 128 179.141 128C173.177 128 167.793 125.219 164.395 120.856C160.997 125.219 155.612 128 149.648 128C143.684 128 138.299 125.219 134.901 120.856C131.503 125.219 126.119 128 120.155 128C114.191 128 108.806 125.219 105.408 120.856C102.01 125.219 96.6253 128 90.6613 128C90.5741 128 90.487 127.999 90.4 127.998Z" fill="#EB4A19"/>
<path d="M88 63.1982V55.6907C88.0868 55.6926 88.1739 55.6935 88.2613 55.6935C94.4853 55.6935 99.2747 50.856 99.2747 45.2H106.741C106.741 50.856 111.531 55.6935 117.755 55.6935C123.979 55.6935 128.768 50.856 128.768 45.2H136.235C136.235 50.856 141.024 55.6935 147.248 55.6935C153.472 55.6935 158.261 50.856 158.261 45.2H165.728C165.728 50.856 170.517 55.6935 176.741 55.6935C177.031 55.6935 177.317 55.6831 177.6 55.6625V63.1807C177.315 63.1935 177.029 63.2 176.741 63.2C170.777 63.2 165.393 60.4193 161.995 56.0559C158.597 60.4193 153.212 63.2 147.248 63.2C141.284 63.2 135.899 60.4193 132.501 56.0559C129.103 60.4193 123.719 63.2 117.755 63.2C111.791 63.2 106.406 60.4193 103.008 56.0559C99.6101 60.4193 94.2253 63.2 88.2613 63.2C88.1741 63.2 88.087 63.1994 88 63.1982Z" fill="#EB4A19"/>
<path d="M78.4 111.198V103.691C78.4868 103.693 78.5739 103.694 78.6613 103.694C84.8853 103.694 89.6747 98.856 89.6747 93.2H97.1413C97.1413 98.856 101.931 103.694 108.155 103.694C114.379 103.694 119.168 98.856 119.168 93.2H126.635C126.635 98.856 131.424 103.694 137.648 103.694C143.872 103.694 148.661 98.856 148.661 93.2H156.128C156.128 98.856 160.917 103.694 167.141 103.694C167.431 103.694 167.717 103.683 168 103.663V111.181C167.715 111.194 167.429 111.2 167.141 111.2C161.177 111.2 155.793 108.419 152.395 104.056C148.997 108.419 143.612 111.2 137.648 111.2C131.684 111.2 126.299 108.419 122.901 104.056C119.503 108.419 114.119 111.2 108.155 111.2C102.191 111.2 96.8059 108.419 93.408 104.056C90.0101 108.419 84.6253 111.2 78.6613 111.2C78.5741 111.2 78.487 111.199 78.4 111.198Z" fill="#EB4A19"/>
<path d="M76 46.3982V38.8907C76.0868 38.8926 76.1739 38.8935 76.2613 38.8935C82.4853 38.8935 87.2747 34.056 87.2747 28.4H94.7413C94.7413 34.056 99.5307 38.8935 105.755 38.8935C111.979 38.8935 116.768 34.056 116.768 28.4H124.235C124.235 34.056 129.024 38.8935 135.248 38.8935C141.472 38.8935 146.261 34.056 146.261 28.4H153.728C153.728 34.056 158.517 38.8935 164.741 38.8935C165.031 38.8935 165.317 38.8831 165.6 38.8625V46.3807C165.315 46.3935 165.029 46.4 164.741 46.4C158.777 46.4 153.393 43.6193 149.995 39.2559C146.597 43.6192 141.212 46.4 135.248 46.4C129.284 46.4 123.899 43.6192 120.501 39.2559C117.103 43.6193 111.719 46.4 105.755 46.4C99.7907 46.4 94.4059 43.6193 91.008 39.2559C87.6101 43.6193 82.2253 46.4 76.2613 46.4C76.1741 46.4 76.087 46.3994 76 46.3982Z" fill="#EB4A19"/>
<path d="M89.2 95.5982V88.0907C89.2868 88.0926 89.3739 88.0935 89.4613 88.0935C95.6853 88.0935 100.475 83.256 100.475 77.6H107.941C107.941 83.256 112.731 88.0935 118.955 88.0935C125.179 88.0935 129.968 83.256 129.968 77.6H137.435C137.435 83.256 142.224 88.0935 148.448 88.0935C154.672 88.0935 159.461 83.256 159.461 77.6H166.928C166.928 83.256 171.717 88.0935 177.941 88.0935C178.231 88.0935 178.517 88.0831 178.8 88.0625V95.5807C178.515 95.5935 178.229 95.6 177.941 95.6C171.977 95.6 166.593 92.8193 163.195 88.4559C159.797 92.8193 154.412 95.6 148.448 95.6C142.484 95.6 137.099 92.8193 133.701 88.4559C130.303 92.8193 124.919 95.6 118.955 95.6C112.991 95.6 107.606 92.8193 104.208 88.4559C100.81 92.8193 95.4253 95.6 89.4613 95.6C89.3741 95.6 89.287 95.5994 89.2 95.5982Z" fill="#EB4A19"/>
<path d="M86.8 30.7982V23.2907C86.8868 23.2926 86.9739 23.2935 87.0613 23.2935C93.2853 23.2935 98.0747 18.456 98.0747 12.8H105.541C105.541 18.456 110.331 23.2935 116.555 23.2935C122.779 23.2935 127.568 18.456 127.568 12.8H135.035C135.035 18.456 139.824 23.2935 146.048 23.2935C152.272 23.2935 157.061 18.456 157.061 12.8H164.528C164.528 18.456 169.317 23.2935 175.541 23.2935C175.831 23.2935 176.117 23.2831 176.4 23.2625V30.7807C176.115 30.7935 175.829 30.8 175.541 30.8C169.577 30.8 164.193 28.0193 160.795 23.6559C157.397 28.0192 152.012 30.8 146.048 30.8C140.084 30.8 134.699 28.0192 131.301 23.6559C127.903 28.0193 122.519 30.8 116.555 30.8C110.591 30.8 105.206 28.0193 101.808 23.6559C98.4101 28.0193 93.0253 30.8 87.0613 30.8C86.9741 30.8 86.887 30.7994 86.8 30.7982Z" fill="#EB4A19"/>
<path d="M77.2 78.7982V71.2907C77.2868 71.2926 77.3739 71.2935 77.4613 71.2935C83.6853 71.2935 88.4747 66.456 88.4747 60.8H95.9413C95.9413 66.456 100.731 71.2935 106.955 71.2935C113.179 71.2935 117.968 66.456 117.968 60.8H125.435C125.435 66.456 130.224 71.2935 136.448 71.2935C142.672 71.2935 147.461 66.456 147.461 60.8H154.928C154.928 66.456 159.717 71.2935 165.941 71.2935C166.231 71.2935 166.517 71.2831 166.8 71.2625V78.7807C166.515 78.7935 166.229 78.8 165.941 78.8C159.977 78.8 154.593 76.0192 151.195 71.6559C147.797 76.0192 142.412 78.8 136.448 78.8C130.484 78.8 125.099 76.0192 121.701 71.6559C118.303 76.0192 112.919 78.8 106.955 78.8C100.991 78.8 95.6059 76.0192 92.208 71.6559C88.8101 76.0192 83.4253 78.8 77.4613 78.8C77.3741 78.8 77.287 78.7994 77.2 78.7982Z" fill="#EB4A19"/>
<path d="M74.8 13.9982V6.49067C74.8868 6.49256 74.9739 6.49352 75.0613 6.49352C81.2853 6.49352 86.0747 1.656 86.0747 -4H93.5413C93.5413 1.656 98.3307 6.49352 104.555 6.49352C110.779 6.49352 115.568 1.656 115.568 -4L123.035 -4C123.035 1.656 127.824 6.49352 134.048 6.49352C140.272 6.49352 145.061 1.656 145.061 -4L152.528 -4C152.528 1.656 157.317 6.49352 163.541 6.49352C163.831 6.49352 164.117 6.48305 164.4 6.46254V13.9807C164.115 13.9935 163.829 14 163.541 14C157.577 14 152.193 11.2193 148.795 6.85587C145.397 11.2192 140.012 14 134.048 14C128.084 14 122.699 11.2192 119.301 6.85587C115.903 11.2193 110.519 14 104.555 14C98.5907 14 93.2059 11.2193 89.808 6.85587C86.4101 11.2193 81.0253 14 75.0613 14C74.9741 14 74.887 13.9994 74.8 13.9982Z" fill="#EB4A19"/>
<path d="M1.6 127.998V120.491C1.68682 120.493 1.77393 120.494 1.86133 120.494C8.08528 120.494 12.8747 115.656 12.8747 110H20.3413C20.3413 115.656 25.1307 120.494 31.3547 120.494C37.5786 120.494 42.368 115.656 42.368 110H49.8347C49.8347 115.656 54.624 120.494 60.848 120.494C67.072 120.494 71.8613 115.656 71.8613 110H79.328C79.328 115.656 84.1174 120.494 90.3413 120.494C90.6308 120.494 90.9171 120.483 91.2 120.463L91.2 127.981C90.9152 127.994 90.6289 128 90.3413 128C84.3773 128 78.9925 125.219 75.5947 120.856C72.1968 125.219 66.812 128 60.848 128C54.884 128 49.4992 125.219 46.1013 120.856C42.7034 125.219 37.3187 128 31.3547 128C25.3907 128 20.0059 125.219 16.608 120.856C13.2101 125.219 7.82532 128 1.86133 128C1.77409 128 1.68698 127.999 1.6 127.998Z" fill="#EB4A19"/>
<path d="M-0.800001 63.1982V55.6907C-0.713179 55.6926 -0.62607 55.6935 -0.538672 55.6935C5.68528 55.6935 10.4747 50.856 10.4747 45.2H17.9413C17.9413 50.856 22.7307 55.6935 28.9547 55.6935C35.1786 55.6935 39.968 50.856 39.968 45.2H47.4347C47.4347 50.856 52.224 55.6935 58.448 55.6935C64.672 55.6935 69.4613 50.856 69.4613 45.2H76.928C76.928 50.856 81.7174 55.6935 87.9413 55.6935C88.2308 55.6935 88.5171 55.6831 88.8 55.6625V63.1807C88.5152 63.1935 88.229 63.2 87.9413 63.2C81.9773 63.2 76.5925 60.4193 73.1947 56.0559C69.7968 60.4193 64.412 63.2 58.448 63.2C52.484 63.2 47.0992 60.4193 43.7013 56.0559C40.3034 60.4193 34.9187 63.2 28.9547 63.2C22.9907 63.2 17.6059 60.4193 14.208 56.0559C10.8101 60.4193 5.42531 63.2 -0.538672 63.2C-0.62591 63.2 -0.713017 63.1994 -0.800001 63.1982Z" fill="#EB4A19"/>
<path d="M0.4 95.5982V88.0907C0.486821 88.0926 0.57393 88.0935 0.661327 88.0935C6.88528 88.0935 11.6747 83.256 11.6747 77.6H19.1413C19.1413 83.256 23.9307 88.0935 30.1547 88.0935C36.3786 88.0935 41.168 83.256 41.168 77.6H48.6347C48.6347 83.256 53.424 88.0935 59.648 88.0935C65.872 88.0935 70.6613 83.256 70.6613 77.6H78.128C78.128 83.256 82.9174 88.0935 89.1413 88.0935C89.4308 88.0935 89.7171 88.0831 90 88.0625V95.5807C89.7152 95.5935 89.4289 95.6 89.1413 95.6C83.1773 95.6 77.7925 92.8193 74.3947 88.4559C70.9968 92.8193 65.612 95.6 59.648 95.6C53.684 95.6 48.2992 92.8193 44.9013 88.4559C41.5034 92.8193 36.1187 95.6 30.1547 95.6C24.1907 95.6 18.8059 92.8193 15.408 88.4559C12.0101 92.8193 6.62531 95.6 0.661327 95.6C0.57409 95.6 0.486983 95.5994 0.4 95.5982Z" fill="#EB4A19"/>
<path d="M-2 30.7982V23.2907C-1.91318 23.2926 -1.82607 23.2935 -1.73867 23.2935C4.48528 23.2935 9.27466 18.456 9.27466 12.8H16.7413C16.7413 18.456 21.5307 23.2935 27.7547 23.2935C33.9786 23.2935 38.768 18.456 38.768 12.8H46.2347C46.2347 18.456 51.024 23.2935 57.248 23.2935C63.472 23.2935 68.2613 18.456 68.2613 12.8H75.728C75.728 18.456 80.5174 23.2935 86.7413 23.2935C87.0308 23.2935 87.3171 23.2831 87.6 23.2625V30.7807C87.3152 30.7935 87.0289 30.8 86.7413 30.8C80.7773 30.8 75.3925 28.0193 71.9947 23.6559C68.5968 28.0192 63.212 30.8 57.248 30.8C51.284 30.8 45.8992 28.0192 42.5013 23.6559C39.1034 28.0193 33.7187 30.8 27.7547 30.8C21.7907 30.8 16.4059 28.0193 13.008 23.6559C9.6101 28.0193 4.22532 30.8 -1.73867 30.8C-1.82591 30.8 -1.91302 30.7994 -2 30.7982Z" fill="#EB4A19"/>
<path d="M-10.4 111.198L-10.4 103.691C-10.3132 103.693 -10.2261 103.694 -10.1387 103.694C-3.91472 103.694 0.874663 98.856 0.874663 93.2H8.34133C8.34133 98.856 13.1307 103.694 19.3547 103.694C25.5786 103.694 30.368 98.856 30.368 93.2H37.8347C37.8347 98.856 42.624 103.694 48.848 103.694C55.072 103.694 59.8613 98.856 59.8613 93.2H67.328C67.328 98.856 72.1174 103.694 78.3413 103.694C78.6308 103.694 78.9171 103.683 79.2 103.663V111.181C78.9152 111.194 78.6289 111.2 78.3413 111.2C72.3773 111.2 66.9925 108.419 63.5947 104.056C60.1968 108.419 54.812 111.2 48.848 111.2C42.884 111.2 37.4992 108.419 34.1013 104.056C30.7034 108.419 25.3187 111.2 19.3547 111.2C13.3907 111.2 8.00588 108.419 4.60799 104.056C1.2101 108.419 -4.17468 111.2 -10.1387 111.2C-10.2259 111.2 -10.313 111.199 -10.4 111.198Z" fill="#EB4A19"/>
<path d="M-12.8 46.3982L-12.8 38.8907C-12.7132 38.8926 -12.6261 38.8935 -12.5387 38.8935C-6.31472 38.8935 -1.52534 34.056 -1.52534 28.4H5.94133C5.94133 34.056 10.7307 38.8935 16.9547 38.8935C23.1786 38.8935 27.968 34.056 27.968 28.4H35.4347C35.4347 34.056 40.224 38.8935 46.448 38.8935C52.672 38.8935 57.4613 34.056 57.4613 28.4H64.928C64.928 34.056 69.7174 38.8935 75.9413 38.8935C76.2308 38.8935 76.5171 38.8831 76.8 38.8625V46.3807C76.5152 46.3935 76.229 46.4 75.9413 46.4C69.9773 46.4 64.5925 43.6193 61.1947 39.2559C57.7968 43.6192 52.412 46.4 46.448 46.4C40.484 46.4 35.0992 43.6192 31.7013 39.2559C28.3034 43.6193 22.9187 46.4 16.9547 46.4C10.9907 46.4 5.60588 43.6193 2.20799 39.2559C-1.1899 43.6193 -6.57468 46.4 -12.5387 46.4C-12.6259 46.4 -12.713 46.3994 -12.8 46.3982Z" fill="#EB4A19"/>
<path d="M-11.6 78.7982V71.2907C-11.5132 71.2926 -11.4261 71.2935 -11.3387 71.2935C-5.11472 71.2935 -0.325336 66.456 -0.325336 60.8H7.14133C7.14133 66.456 11.9307 71.2935 18.1547 71.2935C24.3786 71.2935 29.168 66.456 29.168 60.8H36.6347C36.6347 66.456 41.424 71.2935 47.648 71.2935C53.872 71.2935 58.6613 66.456 58.6613 60.8H66.128C66.128 66.456 70.9174 71.2935 77.1413 71.2935C77.4308 71.2935 77.7171 71.2831 78 71.2625V78.7807C77.7152 78.7935 77.4289 78.8 77.1413 78.8C71.1773 78.8 65.7925 76.0192 62.3947 71.6559C58.9968 76.0192 53.612 78.8 47.648 78.8C41.684 78.8 36.2992 76.0192 32.9013 71.6559C29.5034 76.0192 24.1187 78.8 18.1547 78.8C12.1907 78.8 6.80588 76.0192 3.40799 71.6559C0.0101051 76.0192 -5.37468 78.8 -11.3387 78.8C-11.4259 78.8 -11.513 78.7994 -11.6 78.7982Z" fill="#EB4A19"/>
<path d="M-14 13.9982L-14 6.49067C-13.9132 6.49256 -13.8261 6.49352 -13.7387 6.49352C-7.51472 6.49352 -2.72534 1.656 -2.72534 -4L4.74133 -4C4.74133 1.656 9.53071 6.49352 15.7547 6.49352C21.9786 6.49352 26.768 1.656 26.768 -4L34.2347 -4C34.2347 1.656 39.024 6.49352 45.248 6.49352C51.472 6.49352 56.2613 1.656 56.2613 -4L63.728 -4C63.728 1.656 68.5174 6.49352 74.7413 6.49352C75.0308 6.49352 75.3171 6.48305 75.6 6.46254V13.9807C75.3152 13.9935 75.0289 14 74.7413 14C68.7773 14 63.3925 11.2193 59.9947 6.85587C56.5968 11.2192 51.212 14 45.248 14C39.284 14 33.8992 11.2192 30.5013 6.85587C27.1034 11.2193 21.7187 14 15.7547 14C9.79068 14 4.40588 11.2193 1.00799 6.85587C-2.3899 11.2193 -7.77468 14 -13.7387 14C-13.8259 14 -13.913 13.9994 -14 13.9982Z" fill="#EB4A19"/>
</g>
</svg>
