<svg viewBox="0 0 40 40" fill="currentColor" xmlns="http://www.w3.org/2000/svg">
  <path
    d="M20.1183 6.5V5.5V6.5ZM7.51972 19L6.51972 19V19H7.51972ZM7.51972 21.5L6.81539 22.2099C7.20527 22.5967 7.83416 22.5967 8.22404 22.2099L7.51972 21.5ZM10.7438 19.7099C11.1358 19.3209 11.1383 18.6877 10.7493 18.2957C10.3603 17.9036 9.72717 17.9011 9.33511 18.2901L10.7438 19.7099ZM5.70432 18.2901C5.31227 17.9011 4.67911 17.9036 4.29012 18.2957C3.90113 18.6877 3.90362 19.3209 4.29568 19.7099L5.70432 18.2901ZM30.0298 13.0237C30.3191 13.4942 30.935 13.6411 31.4054 13.3519C31.8759 13.0626 32.0229 12.4468 31.7336 11.9763L30.0298 13.0237ZM20.1183 6.5V5.5C12.6154 5.5 6.51972 11.5368 6.51972 19L7.51972 19H8.51972C8.51972 12.6561 13.7052 7.5 20.1183 7.5V6.5ZM7.51972 19H6.51972L6.51972 21.5H7.51972H8.51972L8.51972 19L7.51972 19ZM7.51972 21.5L8.22404 22.2099L10.7438 19.7099L10.0394 19L9.33511 18.2901L6.81539 20.7901L7.51972 21.5ZM7.51972 21.5L8.22404 20.7901L5.70432 18.2901L5 19L4.29568 19.7099L6.81539 22.2099L7.51972 21.5ZM30.8817 12.5L31.7336 11.9763C29.346 8.09259 25.036 5.5 20.1183 5.5V6.5V7.5C24.3175 7.5 27.9936 9.71149 30.0298 13.0237L30.8817 12.5Z"
    fill="currentColor" />
  <path opacity="0.5"
    d="M19.8237 33.5L19.8237 34.5L19.8237 33.5ZM32.4705 21H33.4705H32.4705ZM32.4705 18.5L33.1734 17.7888C32.7839 17.4037 32.1571 17.4037 31.7675 17.7888L32.4705 18.5ZM29.2382 20.2888C28.8454 20.677 28.8417 21.3102 29.2299 21.703C29.6181 22.0958 30.2513 22.0995 30.6441 21.7112L29.2382 20.2888ZM34.2969 21.7112C34.6897 22.0995 35.3228 22.0958 35.7111 21.703C36.0993 21.3102 36.0956 20.677 35.7028 20.2888L34.2969 21.7112ZM9.87016 26.9748C9.58012 26.5048 8.96399 26.359 8.49399 26.649C8.024 26.939 7.87812 27.5552 8.16817 28.0252L9.87016 26.9748ZM19.8237 33.5L19.8237 34.5C27.3496 34.5 33.4705 28.4668 33.4705 21H32.4705H31.4705C31.4705 27.3403 26.2671 32.5 19.8237 32.5V33.5ZM32.4705 21H33.4705V18.5H32.4705H31.4705V21H32.4705ZM32.4705 18.5L31.7675 17.7888L29.2382 20.2888L29.9411 21L30.6441 21.7112L33.1734 19.2112L32.4705 18.5ZM32.4705 18.5L31.7675 19.2112L34.2969 21.7112L34.9998 21L35.7028 20.2888L33.1734 17.7888L32.4705 18.5ZM9.01917 27.5L8.16817 28.0252C10.565 31.9091 14.8904 34.5 19.8237 34.5L19.8237 33.5V32.5C15.6053 32.5 11.9141 30.2868 9.87016 26.9748L9.01917 27.5Z"
    fill="currentColor" />
</svg>